<svg xmlns="http://www.w3.org/2000/svg" width="500" height="500" style="width:100%;height:100%;transform:translate3d(0,0,0);content-visibility:visible" viewBox="0 0 500 500"><defs><clipPath id="b"><path d="M0 0h500v500H0z"/></clipPath><clipPath id="d"><path d="M0 0h500v500H0z"/></clipPath><path id="a" fill="red" d="M164.44-134.25v268.5c0 1.94-1.57 3.5-3.5 3.5h-321.88c-1.93 0-3.5-1.56-3.5-3.5v-268.5c0-1.93 1.57-3.5 3.5-3.5h321.88c1.93 0 3.5 1.57 3.5 3.5z" style="display:block" transform="translate(250 249.996)"/><mask id="c" mask-type="alpha"><use xmlns:ns1="http://www.w3.org/1999/xlink" ns1:href="#a"/></mask></defs><g clip-path="url(#b)"><path fill="#EBE6EF" d="M164.44-134.25v268.5c0 1.94-1.57 3.5-3.5 3.5h-321.88c-1.93 0-3.5-1.56-3.5-3.5v-268.5c0-1.93 1.57-3.5 3.5-3.5h321.88c1.93 0 3.5 1.57 3.5 3.5z" style="display:block" transform="translate(250 249.996)"/><g mask="url(#c)" style="display:block"><g clip-path="url(#d)" transform="translate(0 -.002)"><path fill="#2CA58D" d="m110.56 94.301-220.87-.25 32.817-56.513L-2.34-90.809c1.16-1.99 4.03-1.99 5.19 0l76.73 131.68 30.98 53.43z" style="display:block" transform="translate(224.819 295.446)"/><g opacity=".5" style="mix-blend-mode:multiply;display:block"><path fill="#2CA58D" d="m36.86 31.775-73.72-.06 36.73-63.49 36.99 63.55z" opacity="1" style="mix-blend-mode:multiply" transform="translate(296.954 355.842)"/></g><path fill="#2CA58D" d="M55.86 45.646H-55.86l15.811-26.201L-24.86-5.724l.04-.06 23.15-38.36c1.16-2 4.03-2 5.19-.01l36.361 62.385L55.86 45.646z" style="display:block" transform="translate(329.219 342.101)"/><g style="mix-blend-mode:multiply;display:none"><path style="mix-blend-mode:multiply"/></g><path fill="#2CA58D" d="M55.86 45.646H-55.86l31-51.37.04-.06 23.15-38.36c1.16-2 4.03-2 5.19-.01l52.34 89.8z" style="display:block" transform="translate(483.779 342.101)"/></g></g><path fill="#F24C00" d="M37.623 0C37.623 20.78 20.78 37.623 0 37.623-20.78 37.623-37.623 20.78-37.623 0c0-20.78 16.843-37.623 37.623-37.623C20.78-37.623 37.623-20.78 37.623 0z" style="display:block" transform="translate(314.422 186.821)"/><g class="com" style="display:none"><path/><path/><path/><path/><path/><path/><path/><path/><path/><path/><path/><path/></g></g></svg>